<svg xmlns:xlink="http://www.w3.org/1999/xlink" width="87.922ex" height="30.343ex" style="font-size: 15px; vertical-align: -15.005ex; margin-top: -0.425ex;" viewBox="0 -6603.8 37855 13064.1" role="img" focusable="false" xmlns="http://www.w3.org/2000/svg">
<defs>
<path stroke-width="1" id="E1-MJMATHI-78" d="M52 289Q59 331 106 386T222 442Q257 442 286 424T329 379Q371 442 430 442Q467 442 494 420T522 361Q522 332 508 314T481 292T458 288Q439 288 427 299T415 328Q415 374 465 391Q454 404 425 404Q412 404 406 402Q368 386 350 336Q290 115 290 78Q290 50 306 38T341 26Q378 26 414 59T463 140Q466 150 469 151T485 153H489Q504 153 504 145Q504 144 502 134Q486 77 440 33T333 -11Q263 -11 227 52Q186 -10 133 -10H127Q78 -10 57 16T35 71Q35 103 54 123T99 143Q142 143 142 101Q142 81 130 66T107 46T94 41L91 40Q91 39 97 36T113 29T132 26Q168 26 194 71Q203 87 217 139T245 247T261 313Q266 340 266 352Q266 380 251 392T217 404Q177 404 142 372T93 290Q91 281 88 280T72 278H58Q52 284 52 289Z"></path>
<path stroke-width="1" id="E1-MJMAIN-31" d="M213 578L200 573Q186 568 160 563T102 556H83V602H102Q149 604 189 617T245 641T273 663Q275 666 285 666Q294 666 302 660V361L303 61Q310 54 315 52T339 48T401 46H427V0H416Q395 3 257 3Q121 3 100 0H88V46H114Q136 46 152 46T177 47T193 50T201 52T207 57T213 61V578Z"></path>
<path stroke-width="1" id="E1-MJMAIN-2192" d="M56 237T56 250T70 270H835Q719 357 692 493Q692 494 692 496T691 499Q691 511 708 511H711Q720 511 723 510T729 506T732 497T735 481T743 456Q765 389 816 336T935 261Q944 258 944 250Q944 244 939 241T915 231T877 212Q836 186 806 152T761 85T740 35T732 4Q730 -6 727 -8T711 -11Q691 -11 691 0Q691 7 696 25Q728 151 835 230H70Q56 237 56 250Z"></path>
<path stroke-width="1" id="E1-MJMAIN-2212" d="M84 237T84 250T98 270H679Q694 262 694 250T679 230H98Q84 237 84 250Z"></path>
<path stroke-width="1" id="E1-MJMAIN-2C" d="M78 35T78 60T94 103T137 121Q165 121 187 96T210 8Q210 -27 201 -60T180 -117T154 -158T130 -185T117 -194Q113 -194 104 -185T95 -172Q95 -168 106 -156T131 -126T157 -76T173 -3V9L172 8Q170 7 167 6T161 3T152 1T140 0Q113 0 96 17Z"></path>
<path stroke-width="1" id="E1-MJMAIN-32" d="M109 429Q82 429 66 447T50 491Q50 562 103 614T235 666Q326 666 387 610T449 465Q449 422 429 383T381 315T301 241Q265 210 201 149L142 93L218 92Q375 92 385 97Q392 99 409 186V189H449V186Q448 183 436 95T421 3V0H50V19V31Q50 38 56 46T86 81Q115 113 136 137Q145 147 170 174T204 211T233 244T261 278T284 308T305 340T320 369T333 401T340 431T343 464Q343 527 309 573T212 619Q179 619 154 602T119 569T109 550Q109 549 114 549Q132 549 151 535T170 489Q170 464 154 447T109 429Z"></path>
<path stroke-width="1" id="E1-MJMAIN-33" d="M127 463Q100 463 85 480T69 524Q69 579 117 622T233 665Q268 665 277 664Q351 652 390 611T430 522Q430 470 396 421T302 350L299 348Q299 347 308 345T337 336T375 315Q457 262 457 175Q457 96 395 37T238 -22Q158 -22 100 21T42 130Q42 158 60 175T105 193Q133 193 151 175T169 130Q169 119 166 110T159 94T148 82T136 74T126 70T118 67L114 66Q165 21 238 21Q293 21 321 74Q338 107 338 175V195Q338 290 274 322Q259 328 213 329L171 330L168 332Q166 335 166 348Q166 366 174 366Q202 366 232 371Q266 376 294 413T322 525V533Q322 590 287 612Q265 626 240 626Q208 626 181 615T143 592T132 580H135Q138 579 143 578T153 573T165 566T175 555T183 540T186 520Q186 498 172 481T127 463Z"></path>
<path stroke-width="1" id="E1-MJMAIN-22EF" d="M78 250Q78 274 95 292T138 310Q162 310 180 294T199 251Q199 226 182 208T139 190T96 207T78 250ZM525 250Q525 274 542 292T585 310Q609 310 627 294T646 251Q646 226 629 208T586 190T543 207T525 250ZM972 250Q972 274 989 292T1032 310Q1056 310 1074 294T1093 251Q1093 226 1076 208T1033 190T990 207T972 250Z"></path>
<path stroke-width="1" id="E1-MJMATHI-6E" d="M21 287Q22 293 24 303T36 341T56 388T89 425T135 442Q171 442 195 424T225 390T231 369Q231 367 232 367L243 378Q304 442 382 442Q436 442 469 415T503 336T465 179T427 52Q427 26 444 26Q450 26 453 27Q482 32 505 65T540 145Q542 153 560 153Q580 153 580 145Q580 144 576 130Q568 101 554 73T508 17T439 -10Q392 -10 371 17T350 73Q350 92 386 193T423 345Q423 404 379 404H374Q288 404 229 303L222 291L189 157Q156 26 151 16Q138 -11 108 -11Q95 -11 87 -5T76 7T74 17Q74 30 112 180T152 343Q153 348 153 366Q153 405 129 405Q91 405 66 305Q60 285 60 284Q58 278 41 278H27Q21 284 21 287Z"></path>
<path stroke-width="1" id="E1-MJMAIN-7B" d="M434 -231Q434 -244 428 -250H410Q281 -250 230 -184Q225 -177 222 -172T217 -161T213 -148T211 -133T210 -111T209 -84T209 -47T209 0Q209 21 209 53Q208 142 204 153Q203 154 203 155Q189 191 153 211T82 231Q71 231 68 234T65 250T68 266T82 269Q116 269 152 289T203 345Q208 356 208 377T209 529V579Q209 634 215 656T244 698Q270 724 324 740Q361 748 377 749Q379 749 390 749T408 750H428Q434 744 434 732Q434 719 431 716Q429 713 415 713Q362 710 332 689T296 647Q291 634 291 499V417Q291 370 288 353T271 314Q240 271 184 255L170 250L184 245Q202 239 220 230T262 196T290 137Q291 131 291 1Q291 -134 296 -147Q306 -174 339 -192T415 -213Q429 -213 431 -216Q434 -219 434 -231Z"></path>
<path stroke-width="1" id="E1-MJMATHI-76" d="M173 380Q173 405 154 405Q130 405 104 376T61 287Q60 286 59 284T58 281T56 279T53 278T49 278T41 278H27Q21 284 21 287Q21 294 29 316T53 368T97 419T160 441Q202 441 225 417T249 361Q249 344 246 335Q246 329 231 291T200 202T182 113Q182 86 187 69Q200 26 250 26Q287 26 319 60T369 139T398 222T409 277Q409 300 401 317T383 343T365 361T357 383Q357 405 376 424T417 443Q436 443 451 425T467 367Q467 340 455 284T418 159T347 40T241 -11Q177 -11 139 22Q102 54 102 117Q102 148 110 181T151 298Q173 362 173 380Z"></path>
<path stroke-width="1" id="E1-MJMAIN-3D" d="M56 347Q56 360 70 367H707Q722 359 722 347Q722 336 708 328L390 327H72Q56 332 56 347ZM56 153Q56 168 72 173H708Q722 163 722 153Q722 140 707 133H70Q56 140 56 153Z"></path>
<path stroke-width="1" id="E1-MJMAIN-22C5" d="M78 250Q78 274 95 292T138 310Q162 310 180 294T199 251Q199 226 182 208T139 190T96 207T78 250Z"></path>
<path stroke-width="1" id="E1-MJSZ4-23A7" d="M712 899L718 893V876V865Q718 854 704 846Q627 793 577 710T510 525Q510 524 509 521Q505 493 504 349Q504 345 504 334Q504 277 504 240Q504 -2 503 -4Q502 -8 494 -9T444 -10Q392 -10 390 -9Q387 -8 386 -5Q384 5 384 230Q384 262 384 312T383 382Q383 481 392 535T434 656Q510 806 664 892L677 899H712Z"></path>
<path stroke-width="1" id="E1-MJSZ4-23A9" d="M718 -893L712 -899H677L666 -893Q542 -825 468 -714T385 -476Q384 -466 384 -282Q384 3 385 5L389 9Q392 10 444 10Q486 10 494 9T503 4Q504 2 504 -239V-310V-366Q504 -470 508 -513T530 -609Q546 -657 569 -698T617 -767T661 -812T699 -843T717 -856T718 -876V-893Z"></path>
<path stroke-width="1" id="E1-MJSZ4-23A8" d="M389 1159Q391 1160 455 1160Q496 1160 498 1159Q501 1158 502 1155Q504 1145 504 924Q504 691 503 682Q494 549 425 439T243 259L229 250L243 241Q349 175 421 66T503 -182Q504 -191 504 -424Q504 -600 504 -629T499 -659H498Q496 -660 444 -660T390 -659Q387 -658 386 -655Q384 -645 384 -425V-282Q384 -176 377 -116T342 10Q325 54 301 92T255 155T214 196T183 222T171 232Q170 233 170 250T171 268Q171 269 191 284T240 331T300 407T354 524T383 679Q384 691 384 925Q384 1152 385 1155L389 1159Z"></path>
<path stroke-width="1" id="E1-MJSZ4-23AA" d="M384 150V266Q384 304 389 309Q391 310 455 310Q496 310 498 309Q502 308 503 298Q504 283 504 150Q504 32 504 12T499 -9H498Q496 -10 444 -10T390 -9Q386 -8 385 2Q384 17 384 150Z"></path>
</defs>
<g stroke="currentColor" fill="currentColor" stroke-width="0" transform="matrix(1 0 0 -1 0 0)">
<g transform="translate(28,0)">
 <use xlink:href="#E1-MJMATHI-78" x="0" y="0"></use>
 <use transform="scale(0.707)" xlink:href="#E1-MJMAIN-31" x="809" y="-213"></use>
</g>
<g transform="translate(0,562)">
 <use xlink:href="#E1-MJMAIN-2212" x="-85" y="0"></use>
 <use xlink:href="#E1-MJMAIN-2192" x="81" y="0"></use>
</g>
 <use xlink:href="#E1-MJMAIN-2C" x="1082" y="0"></use>
<g transform="translate(1527,0)">
<g transform="translate(28,0)">
 <use xlink:href="#E1-MJMATHI-78" x="0" y="0"></use>
 <use transform="scale(0.707)" xlink:href="#E1-MJMAIN-32" x="809" y="-213"></use>
</g>
<g transform="translate(0,562)">
 <use xlink:href="#E1-MJMAIN-2212" x="-85" y="0"></use>
 <use xlink:href="#E1-MJMAIN-2192" x="81" y="0"></use>
</g>
</g>
 <use xlink:href="#E1-MJMAIN-2C" x="2609" y="0"></use>
<g transform="translate(3055,0)">
<g transform="translate(28,0)">
 <use xlink:href="#E1-MJMATHI-78" x="0" y="0"></use>
 <use transform="scale(0.707)" xlink:href="#E1-MJMAIN-33" x="809" y="-213"></use>
</g>
<g transform="translate(0,562)">
 <use xlink:href="#E1-MJMAIN-2212" x="-85" y="0"></use>
 <use xlink:href="#E1-MJMAIN-2192" x="81" y="0"></use>
</g>
</g>
 <use xlink:href="#E1-MJMAIN-22EF" x="4304" y="0"></use>
 <use xlink:href="#E1-MJMAIN-2C" x="5643" y="0"></use>
<g transform="translate(6088,0)">
<g transform="translate(28,0)">
 <use xlink:href="#E1-MJMATHI-78" x="0" y="0"></use>
 <use transform="scale(0.707)" xlink:href="#E1-MJMATHI-6E" x="809" y="-213"></use>
</g>
<g transform="translate(0,562)">
 <use xlink:href="#E1-MJMAIN-2212" x="-85" y="0"></use>
 <use xlink:href="#E1-MJMAIN-2192" x="152" y="0"></use>
</g>
</g>
<g transform="translate(7519,0)">
 <use xlink:href="#E1-MJMAIN-2212" x="-85" y="0"></use>
<g transform="translate(-397.0576778703703,0) scale(10.142694412667105,1)">
 <use xlink:href="#E1-MJMAIN-2212"></use>
</g>
 <use xlink:href="#E1-MJMAIN-2192" x="6440" y="0"></use>
<g transform="translate(28,927)">
<g transform="translate(233,150)">
<g transform="translate(1000,0)">
<text font-family="monospace" stroke="none" transform="scale(50.74127551116547) matrix(1 0 0 -1 0 0)">施</text>
<g transform="translate(811,0)">
<text font-family="monospace" stroke="none" transform="scale(50.74127551116547) matrix(1 0 0 -1 0 0)">密</text>
</g>
<g transform="translate(1623,0)">
<text font-family="monospace" stroke="none" transform="scale(50.74127551116547) matrix(1 0 0 -1 0 0)">特</text>
</g>
<g transform="translate(2435,0)">
<text font-family="monospace" stroke="none" transform="scale(50.74127551116547) matrix(1 0 0 -1 0 0)">正</text>
</g>
<g transform="translate(3247,0)">
<text font-family="monospace" stroke="none" transform="scale(50.74127551116547) matrix(1 0 0 -1 0 0)">交</text>
</g>
<g transform="translate(4059,0)">
<text font-family="monospace" stroke="none" transform="scale(50.74127551116547) matrix(1 0 0 -1 0 0)">化</text>
</g>
</g>
</g>
</g>
</g>
<g transform="translate(15238,0)">
<g transform="translate(0,6420)">
 <use xlink:href="#E1-MJSZ4-23A7" x="0" y="-900"></use>
<g transform="translate(0,-5157.711093918447) scale(1,13.81579129877314)">
 <use xlink:href="#E1-MJSZ4-23AA"></use>
</g>
 <use xlink:href="#E1-MJSZ4-23A8" x="0" y="-6421"></use>
<g transform="translate(0,-11328.395892123397) scale(1,13.81579129877314)">
 <use xlink:href="#E1-MJSZ4-23AA"></use>
</g>
 <use xlink:href="#E1-MJSZ4-23A9" x="0" y="-11442"></use>
</g>
<g transform="translate(1056,0)">
<g transform="translate(-11,0)">
<g transform="translate(0,5345)">
<g transform="translate(30,0)">
 <use xlink:href="#E1-MJMATHI-76" x="0" y="0"></use>
 <use transform="scale(0.707)" xlink:href="#E1-MJMAIN-31" x="686" y="-213"></use>
</g>
 <use xlink:href="#E1-MJMAIN-2192" x="0" y="563"></use>
 <use xlink:href="#E1-MJMAIN-3D" x="1278" y="0"></use>
<g transform="translate(2334,0)">
<g transform="translate(28,0)">
 <use xlink:href="#E1-MJMATHI-78" x="0" y="0"></use>
 <use transform="scale(0.707)" xlink:href="#E1-MJMAIN-31" x="809" y="-213"></use>
</g>
<g transform="translate(0,562)">
 <use xlink:href="#E1-MJMAIN-2212" x="-85" y="0"></use>
 <use xlink:href="#E1-MJMAIN-2192" x="81" y="0"></use>
</g>
</g>
</g>
<g transform="translate(0,2368)">
<g transform="translate(30,0)">
 <use xlink:href="#E1-MJMATHI-76" x="0" y="0"></use>
 <use transform="scale(0.707)" xlink:href="#E1-MJMAIN-32" x="686" y="-213"></use>
</g>
 <use xlink:href="#E1-MJMAIN-2192" x="0" y="563"></use>
 <use xlink:href="#E1-MJMAIN-3D" x="1278" y="0"></use>
<g transform="translate(2334,0)">
<g transform="translate(28,0)">
 <use xlink:href="#E1-MJMATHI-78" x="0" y="0"></use>
 <use transform="scale(0.707)" xlink:href="#E1-MJMAIN-32" x="809" y="-213"></use>
</g>
<g transform="translate(0,562)">
 <use xlink:href="#E1-MJMAIN-2212" x="-85" y="0"></use>
 <use xlink:href="#E1-MJMAIN-2192" x="81" y="0"></use>
</g>
</g>
 <use xlink:href="#E1-MJMAIN-2212" x="3639" y="0"></use>
<g transform="translate(4417,0)">
<g transform="translate(342,0)">
<rect stroke="none" width="1826" height="60" x="0" y="220"></rect>
<g transform="translate(60,584)">
<g transform="translate(19,0)">
 <use transform="scale(0.707)" xlink:href="#E1-MJMATHI-78" x="0" y="0"></use>
 <use transform="scale(0.574)" xlink:href="#E1-MJMAIN-32" x="705" y="-243"></use>
</g>
<g transform="translate(0,429)">
 <use transform="scale(0.707)" xlink:href="#E1-MJMAIN-2212" x="-85" y="0"></use>
 <use transform="scale(0.707)" xlink:href="#E1-MJMAIN-2192" x="134" y="0"></use>
</g>
 <use transform="scale(0.707)" xlink:href="#E1-MJMAIN-22C5" x="1134" y="0"></use>
<g transform="translate(999,0)">
<g transform="translate(3,0)">
 <use transform="scale(0.707)" xlink:href="#E1-MJMATHI-76" x="0" y="0"></use>
 <use transform="scale(0.574)" xlink:href="#E1-MJMAIN-31" x="598" y="-243"></use>
</g>
 <use transform="scale(0.707)" xlink:href="#E1-MJMAIN-2192" x="0" y="608"></use>
</g>
</g>
<g transform="translate(107,-737)">
<g transform="translate(3,0)">
 <use transform="scale(0.707)" xlink:href="#E1-MJMATHI-76" x="0" y="0"></use>
 <use transform="scale(0.574)" xlink:href="#E1-MJMAIN-31" x="598" y="-243"></use>
</g>
 <use transform="scale(0.707)" xlink:href="#E1-MJMAIN-2192" x="0" y="608"></use>
 <use transform="scale(0.707)" xlink:href="#E1-MJMAIN-22C5" x="1000" y="0"></use>
<g transform="translate(904,0)">
<g transform="translate(3,0)">
 <use transform="scale(0.707)" xlink:href="#E1-MJMATHI-76" x="0" y="0"></use>
 <use transform="scale(0.574)" xlink:href="#E1-MJMAIN-31" x="598" y="-243"></use>
</g>
 <use transform="scale(0.707)" xlink:href="#E1-MJMAIN-2192" x="0" y="608"></use>
</g>
</g>
</g>
</g>
<g transform="translate(6706,0)">
<g transform="translate(30,0)">
 <use xlink:href="#E1-MJMATHI-76" x="0" y="0"></use>
 <use transform="scale(0.707)" xlink:href="#E1-MJMAIN-31" x="686" y="-213"></use>
</g>
 <use xlink:href="#E1-MJMAIN-2192" x="0" y="563"></use>
</g>
</g>
<g transform="translate(0,-1297)">
<g transform="translate(30,0)">
 <use xlink:href="#E1-MJMATHI-76" x="0" y="0"></use>
 <use transform="scale(0.707)" xlink:href="#E1-MJMAIN-33" x="686" y="-213"></use>
</g>
 <use xlink:href="#E1-MJMAIN-2192" x="0" y="563"></use>
 <use xlink:href="#E1-MJMAIN-3D" x="1278" y="0"></use>
<g transform="translate(2334,0)">
<g transform="translate(28,0)">
 <use xlink:href="#E1-MJMATHI-78" x="0" y="0"></use>
 <use transform="scale(0.707)" xlink:href="#E1-MJMAIN-33" x="809" y="-213"></use>
</g>
<g transform="translate(0,562)">
 <use xlink:href="#E1-MJMAIN-2212" x="-85" y="0"></use>
 <use xlink:href="#E1-MJMAIN-2192" x="81" y="0"></use>
</g>
</g>
 <use xlink:href="#E1-MJMAIN-2212" x="3639" y="0"></use>
<g transform="translate(4417,0)">
<g transform="translate(342,0)">
<rect stroke="none" width="1826" height="60" x="0" y="220"></rect>
<g transform="translate(60,596)">
<g transform="translate(19,0)">
 <use transform="scale(0.707)" xlink:href="#E1-MJMATHI-78" x="0" y="0"></use>
 <use transform="scale(0.574)" xlink:href="#E1-MJMAIN-33" x="705" y="-242"></use>
</g>
<g transform="translate(0,429)">
 <use transform="scale(0.707)" xlink:href="#E1-MJMAIN-2212" x="-85" y="0"></use>
 <use transform="scale(0.707)" xlink:href="#E1-MJMAIN-2192" x="134" y="0"></use>
</g>
 <use transform="scale(0.707)" xlink:href="#E1-MJMAIN-22C5" x="1134" y="0"></use>
<g transform="translate(999,0)">
<g transform="translate(3,0)">
 <use transform="scale(0.707)" xlink:href="#E1-MJMATHI-76" x="0" y="0"></use>
 <use transform="scale(0.574)" xlink:href="#E1-MJMAIN-31" x="598" y="-243"></use>
</g>
 <use transform="scale(0.707)" xlink:href="#E1-MJMAIN-2192" x="0" y="608"></use>
</g>
</g>
<g transform="translate(107,-737)">
<g transform="translate(3,0)">
 <use transform="scale(0.707)" xlink:href="#E1-MJMATHI-76" x="0" y="0"></use>
 <use transform="scale(0.574)" xlink:href="#E1-MJMAIN-31" x="598" y="-243"></use>
</g>
 <use transform="scale(0.707)" xlink:href="#E1-MJMAIN-2192" x="0" y="608"></use>
 <use transform="scale(0.707)" xlink:href="#E1-MJMAIN-22C5" x="1000" y="0"></use>
<g transform="translate(904,0)">
<g transform="translate(3,0)">
 <use transform="scale(0.707)" xlink:href="#E1-MJMATHI-76" x="0" y="0"></use>
 <use transform="scale(0.574)" xlink:href="#E1-MJMAIN-31" x="598" y="-243"></use>
</g>
 <use transform="scale(0.707)" xlink:href="#E1-MJMAIN-2192" x="0" y="608"></use>
</g>
</g>
</g>
</g>
<g transform="translate(6706,0)">
<g transform="translate(30,0)">
 <use xlink:href="#E1-MJMATHI-76" x="0" y="0"></use>
 <use transform="scale(0.707)" xlink:href="#E1-MJMAIN-31" x="686" y="-213"></use>
</g>
 <use xlink:href="#E1-MJMAIN-2192" x="0" y="563"></use>
</g>
 <use xlink:href="#E1-MJMAIN-2212" x="7929" y="0"></use>
<g transform="translate(8707,0)">
<g transform="translate(342,0)">
<rect stroke="none" width="1826" height="60" x="0" y="220"></rect>
<g transform="translate(60,596)">
<g transform="translate(19,0)">
 <use transform="scale(0.707)" xlink:href="#E1-MJMATHI-78" x="0" y="0"></use>
 <use transform="scale(0.574)" xlink:href="#E1-MJMAIN-33" x="705" y="-242"></use>
</g>
<g transform="translate(0,429)">
 <use transform="scale(0.707)" xlink:href="#E1-MJMAIN-2212" x="-85" y="0"></use>
 <use transform="scale(0.707)" xlink:href="#E1-MJMAIN-2192" x="134" y="0"></use>
</g>
 <use transform="scale(0.707)" xlink:href="#E1-MJMAIN-22C5" x="1134" y="0"></use>
<g transform="translate(999,0)">
<g transform="translate(3,0)">
 <use transform="scale(0.707)" xlink:href="#E1-MJMATHI-76" x="0" y="0"></use>
 <use transform="scale(0.574)" xlink:href="#E1-MJMAIN-32" x="598" y="-243"></use>
</g>
 <use transform="scale(0.707)" xlink:href="#E1-MJMAIN-2192" x="0" y="608"></use>
</g>
</g>
<g transform="translate(107,-737)">
<g transform="translate(3,0)">
 <use transform="scale(0.707)" xlink:href="#E1-MJMATHI-76" x="0" y="0"></use>
 <use transform="scale(0.574)" xlink:href="#E1-MJMAIN-32" x="598" y="-243"></use>
</g>
 <use transform="scale(0.707)" xlink:href="#E1-MJMAIN-2192" x="0" y="608"></use>
 <use transform="scale(0.707)" xlink:href="#E1-MJMAIN-22C5" x="1000" y="0"></use>
<g transform="translate(904,0)">
<g transform="translate(3,0)">
 <use transform="scale(0.707)" xlink:href="#E1-MJMATHI-76" x="0" y="0"></use>
 <use transform="scale(0.574)" xlink:href="#E1-MJMAIN-32" x="598" y="-243"></use>
</g>
 <use transform="scale(0.707)" xlink:href="#E1-MJMAIN-2192" x="0" y="608"></use>
</g>
</g>
</g>
</g>
<g transform="translate(10997,0)">
<g transform="translate(30,0)">
 <use xlink:href="#E1-MJMATHI-76" x="0" y="0"></use>
 <use transform="scale(0.707)" xlink:href="#E1-MJMAIN-32" x="686" y="-213"></use>
</g>
 <use xlink:href="#E1-MJMAIN-2192" x="0" y="563"></use>
</g>
</g>
<g transform="translate(0,-4998)">
 <use xlink:href="#E1-MJMATHI-76" x="0" y="0"></use>
 <use transform="scale(0.707)" xlink:href="#E1-MJMATHI-6E" x="686" y="-213"></use>
 <use xlink:href="#E1-MJMAIN-2192" x="4" y="563"></use>
 <use xlink:href="#E1-MJMAIN-3D" x="1287" y="0"></use>
<g transform="translate(2344,0)">
<g transform="translate(28,0)">
 <use xlink:href="#E1-MJMATHI-78" x="0" y="0"></use>
 <use transform="scale(0.707)" xlink:href="#E1-MJMATHI-6E" x="809" y="-213"></use>
</g>
<g transform="translate(0,562)">
 <use xlink:href="#E1-MJMAIN-2212" x="-85" y="0"></use>
 <use xlink:href="#E1-MJMAIN-2192" x="152" y="0"></use>
</g>
</g>
 <use xlink:href="#E1-MJMAIN-2212" x="3719" y="0"></use>
<g transform="translate(4498,0)">
<g transform="translate(342,0)">
<rect stroke="none" width="1884" height="60" x="0" y="220"></rect>
<g transform="translate(60,584)">
<g transform="translate(19,0)">
 <use transform="scale(0.707)" xlink:href="#E1-MJMATHI-78" x="0" y="0"></use>
 <use transform="scale(0.574)" xlink:href="#E1-MJMATHI-6E" x="705" y="-185"></use>
</g>
<g transform="translate(0,429)">
 <use transform="scale(0.707)" xlink:href="#E1-MJMAIN-2212" x="-85" y="0"></use>
 <use transform="scale(0.707)" xlink:href="#E1-MJMAIN-2192" x="215" y="0"></use>
</g>
 <use transform="scale(0.707)" xlink:href="#E1-MJMAIN-22C5" x="1216" y="0"></use>
<g transform="translate(1056,0)">
<g transform="translate(3,0)">
 <use transform="scale(0.707)" xlink:href="#E1-MJMATHI-76" x="0" y="0"></use>
 <use transform="scale(0.574)" xlink:href="#E1-MJMAIN-31" x="598" y="-243"></use>
</g>
 <use transform="scale(0.707)" xlink:href="#E1-MJMAIN-2192" x="0" y="608"></use>
</g>
</g>
<g transform="translate(136,-737)">
<g transform="translate(3,0)">
 <use transform="scale(0.707)" xlink:href="#E1-MJMATHI-76" x="0" y="0"></use>
 <use transform="scale(0.574)" xlink:href="#E1-MJMAIN-31" x="598" y="-243"></use>
</g>
 <use transform="scale(0.707)" xlink:href="#E1-MJMAIN-2192" x="0" y="608"></use>
 <use transform="scale(0.707)" xlink:href="#E1-MJMAIN-22C5" x="1000" y="0"></use>
<g transform="translate(904,0)">
<g transform="translate(3,0)">
 <use transform="scale(0.707)" xlink:href="#E1-MJMATHI-76" x="0" y="0"></use>
 <use transform="scale(0.574)" xlink:href="#E1-MJMAIN-31" x="598" y="-243"></use>
</g>
 <use transform="scale(0.707)" xlink:href="#E1-MJMAIN-2192" x="0" y="608"></use>
</g>
</g>
</g>
</g>
<g transform="translate(6844,0)">
<g transform="translate(30,0)">
 <use xlink:href="#E1-MJMATHI-76" x="0" y="0"></use>
 <use transform="scale(0.707)" xlink:href="#E1-MJMAIN-31" x="686" y="-213"></use>
</g>
 <use xlink:href="#E1-MJMAIN-2192" x="0" y="563"></use>
</g>
 <use xlink:href="#E1-MJMAIN-2212" x="8067" y="0"></use>
<g transform="translate(8845,0)">
<g transform="translate(342,0)">
<rect stroke="none" width="1884" height="60" x="0" y="220"></rect>
<g transform="translate(60,584)">
<g transform="translate(19,0)">
 <use transform="scale(0.707)" xlink:href="#E1-MJMATHI-78" x="0" y="0"></use>
 <use transform="scale(0.574)" xlink:href="#E1-MJMATHI-6E" x="705" y="-185"></use>
</g>
<g transform="translate(0,429)">
 <use transform="scale(0.707)" xlink:href="#E1-MJMAIN-2212" x="-85" y="0"></use>
 <use transform="scale(0.707)" xlink:href="#E1-MJMAIN-2192" x="215" y="0"></use>
</g>
 <use transform="scale(0.707)" xlink:href="#E1-MJMAIN-22C5" x="1216" y="0"></use>
<g transform="translate(1056,0)">
<g transform="translate(3,0)">
 <use transform="scale(0.707)" xlink:href="#E1-MJMATHI-76" x="0" y="0"></use>
 <use transform="scale(0.574)" xlink:href="#E1-MJMAIN-32" x="598" y="-243"></use>
</g>
 <use transform="scale(0.707)" xlink:href="#E1-MJMAIN-2192" x="0" y="608"></use>
</g>
</g>
<g transform="translate(136,-737)">
<g transform="translate(3,0)">
 <use transform="scale(0.707)" xlink:href="#E1-MJMATHI-76" x="0" y="0"></use>
 <use transform="scale(0.574)" xlink:href="#E1-MJMAIN-32" x="598" y="-243"></use>
</g>
 <use transform="scale(0.707)" xlink:href="#E1-MJMAIN-2192" x="0" y="608"></use>
 <use transform="scale(0.707)" xlink:href="#E1-MJMAIN-22C5" x="1000" y="0"></use>
<g transform="translate(904,0)">
<g transform="translate(3,0)">
 <use transform="scale(0.707)" xlink:href="#E1-MJMATHI-76" x="0" y="0"></use>
 <use transform="scale(0.574)" xlink:href="#E1-MJMAIN-32" x="598" y="-243"></use>
</g>
 <use transform="scale(0.707)" xlink:href="#E1-MJMAIN-2192" x="0" y="608"></use>
</g>
</g>
</g>
</g>
<g transform="translate(11192,0)">
<g transform="translate(30,0)">
 <use xlink:href="#E1-MJMATHI-76" x="0" y="0"></use>
 <use transform="scale(0.707)" xlink:href="#E1-MJMAIN-32" x="686" y="-213"></use>
</g>
 <use xlink:href="#E1-MJMAIN-2192" x="0" y="563"></use>
</g>
 <use xlink:href="#E1-MJMAIN-2212" x="12414" y="0"></use>
 <use xlink:href="#E1-MJMAIN-22EF" x="13415" y="0"></use>
 <use xlink:href="#E1-MJMAIN-2212" x="14810" y="0"></use>
<g transform="translate(15588,0)">
<g transform="translate(342,0)">
<rect stroke="none" width="3382" height="60" x="0" y="220"></rect>
<g transform="translate(396,631)">
<g transform="translate(19,0)">
 <use transform="scale(0.707)" xlink:href="#E1-MJMATHI-78" x="0" y="0"></use>
 <use transform="scale(0.574)" xlink:href="#E1-MJMATHI-6E" x="705" y="-185"></use>
</g>
<g transform="translate(0,429)">
 <use transform="scale(0.707)" xlink:href="#E1-MJMAIN-2212" x="-85" y="0"></use>
 <use transform="scale(0.707)" xlink:href="#E1-MJMAIN-2192" x="215" y="0"></use>
</g>
 <use transform="scale(0.707)" xlink:href="#E1-MJMAIN-22C5" x="1216" y="0"></use>
<g transform="translate(1056,0)">
<g transform="translate(19,0)">
 <use transform="scale(0.707)" xlink:href="#E1-MJMATHI-76" x="0" y="0"></use>
<g transform="translate(343,-140)">
 <use transform="scale(0.574)" xlink:href="#E1-MJMATHI-6E" x="0" y="0"></use>
 <use transform="scale(0.574)" xlink:href="#E1-MJMAIN-2212" x="600" y="0"></use>
 <use transform="scale(0.574)" xlink:href="#E1-MJMAIN-31" x="1379" y="0"></use>
</g>
</g>
<g transform="translate(0,430)">
 <use transform="scale(0.707)" xlink:href="#E1-MJMAIN-2212" x="-85" y="0"></use>
<g transform="translate(179.69501991537635,0) scale(1.701074927678191,1)">
 <use transform="scale(0.707)" xlink:href="#E1-MJMAIN-2212"></use>
</g>
 <use transform="scale(0.707)" xlink:href="#E1-MJMAIN-2192" x="1166" y="0"></use>
</g>
</g>
</g>
<g transform="translate(60,-737)">
<g transform="translate(19,0)">
 <use transform="scale(0.707)" xlink:href="#E1-MJMATHI-76" x="0" y="0"></use>
<g transform="translate(343,-140)">
 <use transform="scale(0.574)" xlink:href="#E1-MJMATHI-6E" x="0" y="0"></use>
 <use transform="scale(0.574)" xlink:href="#E1-MJMAIN-2212" x="600" y="0"></use>
 <use transform="scale(0.574)" xlink:href="#E1-MJMAIN-31" x="1379" y="0"></use>
</g>
</g>
<g transform="translate(0,430)">
 <use transform="scale(0.707)" xlink:href="#E1-MJMAIN-2212" x="-85" y="0"></use>
<g transform="translate(179.69501991537635,0) scale(1.701074927678191,1)">
 <use transform="scale(0.707)" xlink:href="#E1-MJMAIN-2212"></use>
</g>
 <use transform="scale(0.707)" xlink:href="#E1-MJMAIN-2192" x="1166" y="0"></use>
</g>
 <use transform="scale(0.707)" xlink:href="#E1-MJMAIN-22C5" x="2167" y="0"></use>
<g transform="translate(1729,0)">
<g transform="translate(19,0)">
 <use transform="scale(0.707)" xlink:href="#E1-MJMATHI-76" x="0" y="0"></use>
<g transform="translate(343,-140)">
 <use transform="scale(0.574)" xlink:href="#E1-MJMATHI-6E" x="0" y="0"></use>
 <use transform="scale(0.574)" xlink:href="#E1-MJMAIN-2212" x="600" y="0"></use>
 <use transform="scale(0.574)" xlink:href="#E1-MJMAIN-31" x="1379" y="0"></use>
</g>
</g>
<g transform="translate(0,430)">
 <use transform="scale(0.707)" xlink:href="#E1-MJMAIN-2212" x="-85" y="0"></use>
<g transform="translate(179.69501991537635,0) scale(1.701074927678191,1)">
 <use transform="scale(0.707)" xlink:href="#E1-MJMAIN-2212"></use>
</g>
 <use transform="scale(0.707)" xlink:href="#E1-MJMAIN-2192" x="1166" y="0"></use>
</g>
</g>
</g>
</g>
</g>
<g transform="translate(19433,0)">
<g transform="translate(28,0)">
 <use xlink:href="#E1-MJMATHI-76" x="0" y="0"></use>
<g transform="translate(485,-150)">
 <use transform="scale(0.707)" xlink:href="#E1-MJMATHI-6E" x="0" y="0"></use>
 <use transform="scale(0.707)" xlink:href="#E1-MJMAIN-2212" x="600" y="0"></use>
 <use transform="scale(0.707)" xlink:href="#E1-MJMAIN-31" x="1379" y="0"></use>
</g>
</g>
<g transform="translate(0,563)">
 <use xlink:href="#E1-MJMAIN-2212" x="-85" y="0"></use>
<g transform="translate(360.74613442985276,0) scale(1.1746019594100263,1)">
 <use xlink:href="#E1-MJMAIN-2212"></use>
</g>
 <use xlink:href="#E1-MJMAIN-2192" x="970" y="0"></use>
</g>
</g>
</g>
</g>
</g>
</g>
</g>
</svg>